<svg xmlns="http://www.w3.org/2000/svg" width="100%" height="100%" viewBox="0 0 467 228" fill="none" preserveAspectRatio="xMidYMid meet" aria-hidden="true" role="img">
<path d="M338.64 159.6H367.2V226.8H338.64V159.6ZM329.76 81.84L355.68 94.08C341.04 105.84 324.72 118.32 312 126L292.56 115.2C305.28 106.56 320.64 92.4 329.76 81.84ZM380.4 94.8L405.6 108.72C377.52 129.6 340.8 151.92 312.24 165.84L294 152.88C322.32 138.24 358.32 114 380.4 94.8ZM266.64 120.72L285.36 104.88C302.88 113.76 326.88 127.68 338.88 138L318.72 155.52C307.92 145.44 284.88 130.56 266.64 120.72ZM390.72 135.36L410.88 120.72C430.08 132.72 454.56 150.72 466.56 164.16L444.96 180.24C434.16 167.28 410.4 148.08 390.72 135.36ZM382.32 188.88L403.44 174.24C421.2 182.88 446.16 196.56 458.88 206.4L436.32 222.72C424.8 213.12 400.56 198.48 382.32 188.88ZM247.92 150.72C295.68 150.48 371.04 149.28 439.68 147.84L438.48 169.2C370.08 171.12 296.88 172.8 249.36 173.52L247.92 150.72ZM297.6 174.96L324 185.04C308.4 200.4 283.92 215.28 264 224.4C258.96 218.88 248.64 209.28 242.4 204.72C262.8 197.76 284.64 186.48 297.6 174.96ZM338.64 1.68001H367.44V87.6H338.64V1.68001ZM260.16 14.88H450V35.52H260.16V14.88ZM272.64 44.88H437.52V65.28H272.64V44.88ZM247.2 74.64H460.8V96.48H247.2V74.64Z" fill="url(#paint0_linear_74_1065)"></path>
<path d="M17.52 64.56H43.68V227.04H17.52V64.56ZM68.16 138.48H93.84V214.56H68.16V138.48ZM79.68 138.48H159.12V206.16H79.68V190.32H133.92V154.56H79.68V138.48ZM31.44 64.56H107.52V129.36H31.44V112.8H81.6V81.36H31.44V64.56ZM31.68 89.28H89.04V104.64H31.68V89.28ZM79.68 164.4H145.44V180H79.68V164.4ZM137.52 89.28H196.32V104.64H137.52V89.28ZM192.96 64.56V81.36H147.6V112.8H192.96V129.36H121.68V64.56H192.96ZM186.48 64.56H213.36V198.24C213.36 211.68 210.72 218.64 202.08 222.72C193.44 226.8 180.72 227.28 162.96 227.04C162 219.84 158.4 209.04 155.04 202.08C165.84 202.8 178.08 202.56 181.68 202.56C185.28 202.32 186.48 201.36 186.48 198V64.56ZM34.56 18.96H110.16V40.56H34.56V18.96ZM131.04 18.96H223.2V40.56H131.04V18.96ZM35.52 0L62.4 7.20001C53.04 28.56 37.68 50.16 23.52 63.6C18 59.04 6.48 51.6 0 48C14.64 36.24 28.08 18 35.52 0ZM133.68 0L161.04 6.72C152.16 27.84 136.56 48.48 122.16 61.2C116.16 57.12 103.92 50.64 96.96 47.76C112.56 36.24 126.48 18.24 133.68 0ZM43.44 36.96L67.2 30.72C72.72 38.4 78.96 48.96 81.6 56.16L56.64 63.12C54.48 56.16 48.72 45.12 43.44 36.96ZM150.96 36.96L175.44 30.24C182.16 37.92 190.08 48.96 193.68 56.4L168 63.6C164.88 56.4 157.68 45.12 150.96 36.96Z" fill="url(#paint1_linear_74_1065)"></path>
<defs>
<linearGradient id="paint0_linear_74_1065" x1="466.76" y1="113.68" x2="17.26" y2="113.68" gradientUnits="userSpaceOnUse">
<stop stop-color="#3F4551"></stop>
<stop offset="1" stop-color="#191C22"></stop>
</linearGradient>
<linearGradient id="paint1_linear_74_1065" x1="466.76" y1="113.68" x2="17.26" y2="113.68" gradientUnits="userSpaceOnUse">
<stop stop-color="#3F4551"></stop>
<stop offset="1" stop-color="#191C22"></stop>
</linearGradient>
</defs>
</svg>